<svg xmlns="http://www.w3.org/2000/svg" xmlns:xlink="http://www.w3.org/1999/xlink" viewBox="0 0 152 152"><defs><linearGradient id="a" x1="76" y1="0.71" x2="76" y2="152.04" gradientUnits="userSpaceOnUse"><stop offset="0" stop-color="#099"/><stop offset="0.27" stop-color="#009595"/><stop offset="0.56" stop-color="#088"/><stop offset="0.87" stop-color="#007272"/><stop offset="1" stop-color="#066"/></linearGradient></defs><title>icon</title><rect width="152" height="152" rx="14" ry="14" fill="url(#a)"/><path d="M56.89,126.64a87.83,87.83,0,0,0,1.11-15q0-19.57-7-49-3.28-13.89-5.71-18.84a20.11,20.11,0,0,0-7.53-8.17q5.92-6.33,9.79-6.33,7.38,0,14.06,23.79,8.79,31.11,8.79,58.07,36.8-49.16,36.8-67.38a10.06,10.06,0,0,0-1.35-5,17.75,17.75,0,0,1,10.08-3.34q4.69,0,4.69,4.51,0,7.79-10.08,25.52T82.62,106.77Q73.3,119,69.4,122T56.89,126.64Z" fill="#f2f2f2"/></svg>