<?xml version="1.0" standalone="no"?>
<!DOCTYPE svg PUBLIC "-//W3C//DTD SVG 20010904//EN"
 "http://www.w3.org/TR/2001/REC-SVG-20010904/DTD/svg10.dtd">
<svg version="1.0" xmlns="http://www.w3.org/2000/svg"
 width="512.000000pt" height="512.000000pt" viewBox="0 0 512.000000 512.000000"
 preserveAspectRatio="xMidYMid meet">
<metadata>
Created by potrace 1.11, written by Peter Selinger 2001-2013
</metadata>
<g transform="translate(0.000000,512.000000) scale(0.100000,-0.100000)"
fill="#000000" stroke="none">
<path d="M312 5096 c-147 -55 -249 -161 -293 -306 -19 -64 -19 -100 -17 -2256
l3 -2190 38 -76 c49 -100 125 -176 225 -225 l76 -38 2216 0 2216 0 76 38 c100
49 176 125 225 225 l38 76 0 2210 0 2211 -23 58 c-48 117 -152 221 -270 269
l-57 23 -2195 2 -2195 2 -63 -23z m1354 -981 c124 -52 258 -296 375 -683 180
-597 291 -1222 319 -1794 6 -122 12 -232 13 -243 1 -14 45 39 137 165 396 541
677 980 859 1340 160 316 228 518 238 700 4 91 2 112 -16 159 -11 30 -20 56
-18 57 1 1 27 15 57 32 127 70 299 94 368 52 48 -30 66 -79 58 -165 -31 -363
-495 -1170 -1240 -2160 -304 -403 -443 -553 -571 -615 -75 -37 -204 -80 -290
-96 -36 -6 -38 -6 -32 17 30 125 40 601 18 849 -29 316 -90 696 -171 1061 -89
401 -172 697 -231 827 -52 116 -152 234 -247 292 -15 9 -6 21 58 81 82 77 192
139 247 139 18 0 50 -7 69 -15z"/>
</g>
</svg>
